<svg xmlns="http://www.w3.org/2000/svg" xmlns:xlink="http://www.w3.org/1999/xlink" contentStyleType="text/css" data-diagram-type="ACTIVITY" height="404px" preserveAspectRatio="none" style="width:473px;height:404px;background:#FFFFFF;" version="1.1" viewBox="0 0 473 404" width="473px" zoomAndPan="magnify"><defs/><g><ellipse cx="255.6707" cy="20" fill="#222222" rx="10" ry="10" style="stroke:#222222;stroke-width:1;"/><rect fill="#FFFFFF" height="33.9688" rx="12.5" ry="12.5" style="stroke:#000000;stroke-width:0.5;" width="310.4492" x="100.446" y="50"/><text fill="#000000" font-family="sans-serif" font-size="12" lengthAdjust="spacing" textLength="290.4492" x="110.446" y="71.1387">Вход: b (ProjectileBall), bonus (Bonus), addBalls</text><polygon fill="#FFFFFF" points="137.3857,103.9688,373.9556,103.9688,385.9556,115.9688,373.9556,127.9688,137.3857,127.9688,125.3857,115.9688,137.3857,103.9688" style="stroke:#000000;stroke-width:0.5;"/><text fill="#000000" font-family="sans-serif" font-size="11" lengthAdjust="spacing" textLength="236.5698" x="137.3857" y="119.7769">b.getBounds().overlaps(bonus.getHitbox())</text><text fill="#000000" font-family="sans-serif" font-size="11" lengthAdjust="spacing" textLength="15.3345" x="110.0513" y="113.3745">Да</text><text fill="#000000" font-family="sans-serif" font-size="11" lengthAdjust="spacing" textLength="21.4468" x="385.9556" y="113.3745">Нет</text><rect fill="#FFFFFF" height="47.9375" rx="12.5" ry="12.5" style="stroke:#000000;stroke-width:0.5;" width="204.3242" x="13.2236" y="137.9688"/><text fill="#000000" font-family="sans-serif" font-size="12" lengthAdjust="spacing" textLength="184.3242" x="23.2236" y="159.1074">Увеличение счетчика шаров:</text><text fill="#000000" font-family="sans-serif" font-size="12" font-weight="bold" lengthAdjust="spacing" textLength="160.9512" x="23.2236" y="173.0762">addBalls = addBalls + 1</text><rect fill="#FFFFFF" height="47.9375" rx="12.5" ry="12.5" style="stroke:#000000;stroke-width:0.5;" width="206.1758" x="12.2979" y="205.9063"/><text fill="#000000" font-family="sans-serif" font-size="12" lengthAdjust="spacing" textLength="186.1758" x="22.2979" y="227.0449">Удаление бонуса из массива:</text><text fill="#000000" font-family="sans-serif" font-size="12" font-weight="bold" lengthAdjust="spacing" textLength="164.2266" x="22.2979" y="241.0137">bonuses.removeIndex(j)</text><rect fill="#FFFFFF" height="47.9375" rx="12.5" ry="12.5" style="stroke:#000000;stroke-width:0.5;" width="208.7715" x="11" y="273.8438"/><text fill="#000000" font-family="sans-serif" font-size="12" lengthAdjust="spacing" textLength="160.3652" x="21" y="294.9824">Вызов триггера события:</text><text fill="#000000" font-family="sans-serif" font-size="12" font-weight="bold" lengthAdjust="spacing" textLength="188.7715" x="21" y="308.9512">listener.onBonusCollected()</text><rect fill="#FFFFFF" height="33.9688" rx="12.5" ry="12.5" style="stroke:#000000;stroke-width:0.5;" width="132.5645" x="329.6733" y="137.9688"/><text fill="#000000" font-family="sans-serif" font-size="12" lengthAdjust="spacing" textLength="112.5645" x="339.6733" y="159.1074">Ничего не делать</text><polygon fill="#FFFFFF" points="255.6707,327.7813,267.6707,339.7813,255.6707,351.7813,243.6707,339.7813,255.6707,327.7813" style="stroke:#000000;stroke-width:0.5;"/><ellipse cx="255.6707" cy="382.7813" fill="none" rx="11" ry="11" style="stroke:#222222;stroke-width:1;"/><ellipse cx="255.6707" cy="382.7813" fill="#222222" rx="6" ry="6" style="stroke:#222222;stroke-width:1;"/><line style="stroke:#181818;stroke-width:1;" x1="255.6707" x2="255.6707" y1="30" y2="50"/><polygon fill="#181818" points="251.6707,40,255.6707,50,259.6707,40,255.6707,44" style="stroke:#181818;stroke-width:1;"/><line style="stroke:#181818;stroke-width:1;" x1="115.3857" x2="115.3857" y1="185.9063" y2="205.9063"/><polygon fill="#181818" points="111.3857,195.9063,115.3857,205.9063,119.3857,195.9063,115.3857,199.9063" style="stroke:#181818;stroke-width:1;"/><line style="stroke:#181818;stroke-width:1;" x1="115.3857" x2="115.3857" y1="253.8438" y2="273.8438"/><polygon fill="#181818" points="111.3857,263.8438,115.3857,273.8438,119.3857,263.8438,115.3857,267.8438" style="stroke:#181818;stroke-width:1;"/><line style="stroke:#181818;stroke-width:1;" x1="125.3857" x2="115.3857" y1="115.9688" y2="115.9688"/><line style="stroke:#181818;stroke-width:1;" x1="115.3857" x2="115.3857" y1="115.9688" y2="137.9688"/><polygon fill="#181818" points="111.3857,127.9688,115.3857,137.9688,119.3857,127.9688,115.3857,131.9688" style="stroke:#181818;stroke-width:1;"/><line style="stroke:#181818;stroke-width:1;" x1="385.9556" x2="395.9556" y1="115.9688" y2="115.9688"/><line style="stroke:#181818;stroke-width:1;" x1="395.9556" x2="395.9556" y1="115.9688" y2="137.9688"/><polygon fill="#181818" points="391.9556,127.9688,395.9556,137.9688,399.9556,127.9688,395.9556,131.9688" style="stroke:#181818;stroke-width:1;"/><line style="stroke:#181818;stroke-width:1;" x1="115.3857" x2="115.3857" y1="321.7813" y2="339.7813"/><line style="stroke:#181818;stroke-width:1;" x1="115.3857" x2="243.6707" y1="339.7813" y2="339.7813"/><polygon fill="#181818" points="233.6707,335.7813,243.6707,339.7813,233.6707,343.7813,237.6707,339.7813" style="stroke:#181818;stroke-width:1;"/><line style="stroke:#181818;stroke-width:1;" x1="395.9556" x2="395.9556" y1="171.9375" y2="339.7813"/><line style="stroke:#181818;stroke-width:1;" x1="395.9556" x2="267.6707" y1="339.7813" y2="339.7813"/><polygon fill="#181818" points="277.6707,335.7813,267.6707,339.7813,277.6707,343.7813,273.6707,339.7813" style="stroke:#181818;stroke-width:1;"/><line style="stroke:#181818;stroke-width:1;" x1="255.6707" x2="255.6707" y1="83.9688" y2="103.9688"/><polygon fill="#181818" points="251.6707,93.9688,255.6707,103.9688,259.6707,93.9688,255.6707,97.9688" style="stroke:#181818;stroke-width:1;"/><line style="stroke:#181818;stroke-width:1;" x1="255.6707" x2="255.6707" y1="351.7813" y2="371.7813"/><polygon fill="#181818" points="251.6707,361.7813,255.6707,371.7813,259.6707,361.7813,255.6707,365.7813" style="stroke:#181818;stroke-width:1;"/><!--SRC=[PL71JW8n4BtlLqpYfRkQZLwNU10JepS_mCikMt1XQKcx4Bon6AC99YR4AoT_O4486nM-OVf7pZQ01wT9ssdxthnvrPr4z48LTk6YaIM397keXurEIyc-Y2zbAXKSNTbmzF-NKiLSxLwTsd0SdOKgSmAScYVSuZA02DYjacrEe9JNmpHrJo2Ieg-1rQk5qZ2EgmjTSv8ciCXlyQnU2T3CzUM0gpJiQMOnrTLraaLoo5pNXUoU2s3uZeNh04M07xZ05NvZQPvftM29Ap1vbPWnpIL-OG7c1Gip8dcBu4vuthuyd1-Km36SULxjGBh4WaZtX3WdxCOycfp8w6GD-4ECEUKbrIyigzNBjQzubtgu4J4VihRxHper4rnN6e2KZGZuIMD5EzANq_dSJCoO-dYpR6cYCowuygMmhf7hALdAOsOfUQev6J6hsjnRCTkPy8bR8E4aUscjAQZUAq54d3JfksJl5m00]--></g></svg>